<svg xmlns="http://www.w3.org/2000/svg" viewBox="0 0 120 360" fill="none" aria-hidden="true">
  <g stroke="#ffffff" stroke-opacity="0.35" stroke-width="2" stroke-linecap="round" stroke-linejoin="round">
    <rect x="18" y="12" width="84" height="22" rx="2" fill="#ffffff" fill-opacity="0.08"/>
    <rect x="22" y="42" width="76" height="20" rx="2" fill="#ffffff" fill-opacity="0.05"/>
    <rect x="14" y="70" width="92" height="24" rx="2" fill="#ffffff" fill-opacity="0.09"/>
    <rect x="24" y="102" width="72" height="18" rx="2" fill="#ffffff" fill-opacity="0.06"/>
    <rect x="12" y="128" width="96" height="26" rx="2" fill="#ffffff" fill-opacity="0.1"/>
    <line x1="32" y1="18" x2="88" y2="18" stroke-opacity="0.45"/>
    <line x1="32" y1="141" x2="88" y2="141" stroke-opacity="0.45"/>
    <rect x="20" y="168" width="80" height="22" rx="2" fill="#ffffff" fill-opacity="0.06"/>
    <rect x="16" y="198" width="88" height="24" rx="2" fill="#ffffff" fill-opacity="0.09"/>
    <rect x="26" y="230" width="68" height="18" rx="2" fill="#ffffff" fill-opacity="0.05"/>
    <rect x="14" y="256" width="92" height="26" rx="2" fill="#ffffff" fill-opacity="0.1"/>
    <line x1="30" y1="268" x2="90" y2="268" stroke-opacity="0.45"/>
    <rect x="22" y="292" width="76" height="20" rx="2" fill="#ffffff" fill-opacity="0.06"/>
    <rect x="18" y="322" width="84" height="22" rx="2" fill="#ffffff" fill-opacity="0.08"/>
  </g>
</svg>
